<svg width="89" height="74" viewBox="0 0 89 74" fill="none" xmlns="http://www.w3.org/2000/svg">
<path d="M0 9.65218C0 4.32143 4.32142 0 9.65217 0H78.8261C84.1568 0 88.4782 4.32143 88.4782 9.65217V64.3478C88.4782 69.6786 84.1568 74 78.8261 74H9.65217C4.32143 74 0 69.6786 0 64.3478V9.65218Z" fill="#FBC815"/>
<path d="M18.3391 56.3043V16.8913H30.6135V46.4511H43.0004V56.3043H18.3391Z" fill="#4F68BB"/>
<path d="M19.6261 57.913V24.1304H30.147V49.4674H40.7643V57.913H19.6261Z" fill="white"/>
<path d="M72.0374 56.3043H45.6869V16.8913H72.0374V21.7898L70.0667 26.8009H57.9613V31.1926H70.0667V41.0459H57.9613V46.4511H72.0374V56.3043Z" fill="white"/>
<path d="M69.56 57.913H46.9739V24.1304H69.56V28.3291L67.8709 32.6243H57.4948V36.3887H67.8709V44.8343H57.4948V49.4674H69.56V57.913Z" fill="#4F68BB"/>
</svg>
